<mxfile host="Electron" agent="Mozilla/5.0 (Windows NT 10.0; Win64; x64) AppleWebKit/537.36 (KHTML, like Gecko) draw.io/28.1.2 Chrome/138.0.7204.243 Electron/37.4.0 Safari/537.36" version="28.1.2">
  <diagram name="ページ1" id="rQqJZIX6tr6lNk25Nhh9">
    <mxGraphModel dx="786" dy="516" grid="1" gridSize="10" guides="1" tooltips="1" connect="1" arrows="1" fold="1" page="1" pageScale="1" pageWidth="1600" pageHeight="1200" math="0" shadow="0">
      <root>
        <mxCell id="0" />
        <mxCell id="1" parent="0" />
        <mxCell id="Q8PtHmKjfMacY_4Qo-mY-1" value="ユーザー" style="shape=umlActor;verticalLabelPosition=bottom;verticalAlign=top;html=1;" vertex="1" parent="1">
          <mxGeometry x="580" y="570" width="30" height="60" as="geometry" />
        </mxCell>
        <mxCell id="Q8PtHmKjfMacY_4Qo-mY-2" value="ログイン画面" style="shape=umlBoundary;whiteSpace=wrap;html=1;" vertex="1" parent="1">
          <mxGeometry x="700" y="510" width="70" height="60" as="geometry" />
        </mxCell>
        <mxCell id="Q8PtHmKjfMacY_4Qo-mY-3" value="メニュー画面" style="shape=umlBoundary;whiteSpace=wrap;html=1;" vertex="1" parent="1">
          <mxGeometry x="700" y="640" width="70" height="60" as="geometry" />
        </mxCell>
        <mxCell id="Q8PtHmKjfMacY_4Qo-mY-4" value="" style="endArrow=classic;html=1;rounded=0;exitX=0.5;exitY=0.5;exitDx=0;exitDy=0;exitPerimeter=0;entryX=-0.029;entryY=0.522;entryDx=0;entryDy=0;entryPerimeter=0;" edge="1" parent="1" source="Q8PtHmKjfMacY_4Qo-mY-1" target="Q8PtHmKjfMacY_4Qo-mY-2">
          <mxGeometry width="50" height="50" relative="1" as="geometry">
            <mxPoint x="800" y="640" as="sourcePoint" />
            <mxPoint x="850" y="590" as="targetPoint" />
          </mxGeometry>
        </mxCell>
        <mxCell id="Q8PtHmKjfMacY_4Qo-mY-5" value="" style="endArrow=classic;html=1;rounded=0;exitX=0.5;exitY=0.5;exitDx=0;exitDy=0;exitPerimeter=0;entryX=-0.029;entryY=0.467;entryDx=0;entryDy=0;entryPerimeter=0;" edge="1" parent="1" source="Q8PtHmKjfMacY_4Qo-mY-1" target="Q8PtHmKjfMacY_4Qo-mY-3">
          <mxGeometry width="50" height="50" relative="1" as="geometry">
            <mxPoint x="700" y="690" as="sourcePoint" />
            <mxPoint x="805" y="630" as="targetPoint" />
          </mxGeometry>
        </mxCell>
        <mxCell id="Q8PtHmKjfMacY_4Qo-mY-6" value="IDとパスワードが一致する訪問者を探す" style="ellipse;shape=umlControl;whiteSpace=wrap;html=1;" vertex="1" parent="1">
          <mxGeometry x="850" y="485" width="100" height="110" as="geometry" />
        </mxCell>
        <mxCell id="Q8PtHmKjfMacY_4Qo-mY-7" value="訪問者&lt;br&gt;情報" style="ellipse;shape=umlEntity;whiteSpace=wrap;html=1;" vertex="1" parent="1">
          <mxGeometry x="1010" y="570" width="60" height="60" as="geometry" />
        </mxCell>
        <mxCell id="Q8PtHmKjfMacY_4Qo-mY-8" value="メニュー&lt;br&gt;画面の表示" style="ellipse;shape=umlControl;whiteSpace=wrap;html=1;" vertex="1" parent="1">
          <mxGeometry x="867.5" y="635" width="65" height="70" as="geometry" />
        </mxCell>
        <mxCell id="Q8PtHmKjfMacY_4Qo-mY-9" value="" style="endArrow=classic;html=1;rounded=0;" edge="1" parent="1" source="Q8PtHmKjfMacY_4Qo-mY-2" target="Q8PtHmKjfMacY_4Qo-mY-6">
          <mxGeometry width="50" height="50" relative="1" as="geometry">
            <mxPoint x="660" y="620" as="sourcePoint" />
            <mxPoint x="765" y="560" as="targetPoint" />
          </mxGeometry>
        </mxCell>
        <mxCell id="Q8PtHmKjfMacY_4Qo-mY-10" value="" style="endArrow=classic;html=1;rounded=0;" edge="1" parent="1" source="Q8PtHmKjfMacY_4Qo-mY-8" target="Q8PtHmKjfMacY_4Qo-mY-3">
          <mxGeometry width="50" height="50" relative="1" as="geometry">
            <mxPoint x="800" y="680" as="sourcePoint" />
            <mxPoint x="905" y="620" as="targetPoint" />
          </mxGeometry>
        </mxCell>
        <mxCell id="Q8PtHmKjfMacY_4Qo-mY-11" value="" style="endArrow=classic;html=1;rounded=0;" edge="1" parent="1" source="Q8PtHmKjfMacY_4Qo-mY-6" target="Q8PtHmKjfMacY_4Qo-mY-8">
          <mxGeometry width="50" height="50" relative="1" as="geometry">
            <mxPoint x="850" y="610" as="sourcePoint" />
            <mxPoint x="935" y="620" as="targetPoint" />
          </mxGeometry>
        </mxCell>
        <mxCell id="Q8PtHmKjfMacY_4Qo-mY-12" value="" style="endArrow=classic;html=1;rounded=0;startArrow=classic;startFill=1;" edge="1" parent="1" source="Q8PtHmKjfMacY_4Qo-mY-6" target="Q8PtHmKjfMacY_4Qo-mY-7">
          <mxGeometry width="50" height="50" relative="1" as="geometry">
            <mxPoint x="1010" y="740" as="sourcePoint" />
            <mxPoint x="1115" y="680" as="targetPoint" />
          </mxGeometry>
        </mxCell>
      </root>
    </mxGraphModel>
  </diagram>
</mxfile>
